  0
SECTION
  2
HEADER
  9
$ACADVER
  1
AC1009
  9
$EXTMIN
 10
0.0
 20
0.0
 30
0.0
  9
$EXTMAX
 10
1000.0
 20
1000.0
 30
0.0
  9
$FILLMODE
 70
 0
  9
$SPLFRAME
 70
 1
  0
ENDSEC
  0
SECTION
  2
TABLES
  0
TABLE
  2
LAYER
 70
1
  0
LAYER
  2
0
 70
     0
 62
     7
  6
CONTINUOUS
  0
ENDTAB
  0
ENDSEC
  0
SECTION
  2
ENTITIES
  0
LINE
  8
0
 62
     0
 10
150.946
 20
115.616
 30
0.0
 11
151.142
 21
115.609
 31
0.0
  0
LINE
  8
0
 62
     0
 10
151.142
 20
115.609
 30
0.0
 11
151.337
 21
115.586
 31
0.0
  0
LINE
  8
0
 62
     0
 10
151.337
 20
115.586
 30
0.0
 11
151.529
 21
115.547
 31
0.0
  0
LINE
  8
0
 62
     0
 10
151.529
 20
115.547
 30
0.0
 11
151.718
 21
115.493
 31
0.0
  0
LINE
  8
0
 62
     0
 10
151.718
 20
115.493
 30
0.0
 11
151.903
 21
115.426
 31
0.0
  0
LINE
  8
0
 62
     0
 10
151.903
 20
115.426
 30
0.0
 11
152.08
 21
115.343
 31
0.0
  0
LINE
  8
0
 62
     0
 10
152.08
 20
115.343
 30
0.0
 11
152.253
 21
115.248
 31
0.0
  0
LINE
  8
0
 62
     0
 10
152.253
 20
115.248
 30
0.0
 11
152.415
 21
115.139
 31
0.0
  0
LINE
  8
0
 62
     0
 10
152.415
 20
115.139
 30
0.0
 11
152.569
 21
115.018
 31
0.0
  0
LINE
  8
0
 62
     0
 10
152.569
 20
115.018
 30
0.0
 11
152.713
 21
114.884
 31
0.0
  0
LINE
  8
0
 62
     0
 10
152.713
 20
114.884
 30
0.0
 11
152.848
 21
114.74
 31
0.0
  0
LINE
  8
0
 62
     0
 10
152.848
 20
114.74
 30
0.0
 11
152.969
 21
114.585
 31
0.0
  0
LINE
  8
0
 62
     0
 10
152.969
 20
114.585
 30
0.0
 11
153.078
 21
114.423
 31
0.0
  0
LINE
  8
0
 62
     0
 10
153.078
 20
114.423
 30
0.0
 11
153.173
 21
114.25
 31
0.0
  0
LINE
  8
0
 62
     0
 10
153.173
 20
114.25
 30
0.0
 11
153.256
 21
114.072
 31
0.0
  0
LINE
  8
0
 62
     0
 10
153.256
 20
114.072
 30
0.0
 11
153.323
 21
113.888
 31
0.0
  0
LINE
  8
0
 62
     0
 10
153.323
 20
113.888
 30
0.0
 11
153.377
 21
113.699
 31
0.0
  0
LINE
  8
0
 62
     0
 10
153.377
 20
113.699
 30
0.0
 11
153.416
 21
113.508
 31
0.0
  0
LINE
  8
0
 62
     0
 10
153.416
 20
113.508
 30
0.0
 11
153.439
 21
113.312
 31
0.0
  0
LINE
  8
0
 62
     0
 10
153.439
 20
113.312
 30
0.0
 11
153.446
 21
113.116
 31
0.0
  0
LINE
  8
0
 62
     0
 10
153.446
 20
113.116
 30
0.0
 11
153.446
 21
2.86494
 31
0.0
  0
LINE
  8
0
 62
     0
 10
153.446
 20
2.86494
 30
0.0
 11
153.439
 21
2.66926
 31
0.0
  0
LINE
  8
0
 62
     0
 10
153.439
 20
2.66926
 30
0.0
 11
153.416
 21
2.47358
 31
0.0
  0
LINE
  8
0
 62
     0
 10
153.416
 20
2.47358
 30
0.0
 11
153.377
 21
2.28203
 31
0.0
  0
LINE
  8
0
 62
     0
 10
153.377
 20
2.28203
 30
0.0
 11
153.323
 21
2.09324
 31
0.0
  0
LINE
  8
0
 62
     0
 10
153.323
 20
2.09324
 30
0.0
 11
153.256
 21
1.90858
 31
0.0
  0
LINE
  8
0
 62
     0
 10
153.256
 20
1.90858
 30
0.0
 11
153.173
 21
1.73082
 31
0.0
  0
LINE
  8
0
 62
     0
 10
153.173
 20
1.73082
 30
0.0
 11
153.078
 21
1.55856
 31
0.0
  0
LINE
  8
0
 62
     0
 10
153.078
 20
1.55856
 30
0.0
 11
152.969
 21
1.39595
 31
0.0
  0
LINE
  8
0
 62
     0
 10
152.969
 20
1.39595
 30
0.0
 11
152.848
 21
1.24161
 31
0.0
  0
LINE
  8
0
 62
     0
 10
152.848
 20
1.24161
 30
0.0
 11
152.713
 21
1.0983
 31
0.0
  0
LINE
  8
0
 62
     0
 10
152.713
 20
1.0983
 30
0.0
 11
152.569
 21
0.963249
 31
0.0
  0
LINE
  8
0
 62
     0
 10
152.569
 20
0.963249
 30
0.0
 11
152.415
 21
0.841982
 31
0.0
  0
LINE
  8
0
 62
     0
 10
152.415
 20
0.841982
 30
0.0
 11
152.253
 21
0.733118
 31
0.0
  0
LINE
  8
0
 62
     0
 10
152.253
 20
0.733118
 30
0.0
 11
152.08
 21
0.63803
 31
0.0
  0
LINE
  8
0
 62
     0
 10
152.08
 20
0.63803
 30
0.0
 11
151.903
 21
0.55535
 31
0.0
  0
LINE
  8
0
 62
     0
 10
151.903
 20
0.55535
 30
0.0
 11
151.718
 21
0.487825
 31
0.0
  0
LINE
  8
0
 62
     0
 10
151.718
 20
0.487825
 30
0.0
 11
151.529
 21
0.434082
 31
0.0
  0
LINE
  8
0
 62
     0
 10
151.529
 20
0.434082
 30
0.0
 11
151.337
 21
0.395496
 31
0.0
  0
LINE
  8
0
 62
     0
 10
151.337
 20
0.395496
 30
0.0
 11
151.142
 21
0.372071
 31
0.0
  0
LINE
  8
0
 62
     0
 10
151.142
 20
0.372071
 30
0.0
 11
150.946
 21
0.365181
 31
0.0
  0
LINE
  8
0
 62
     0
 10
150.946
 20
0.365181
 30
0.0
 11
2.59485
 21
0.365181
 31
0.0
  0
LINE
  8
0
 62
     0
 10
2.59485
 20
0.365181
 30
0.0
 11
2.39916
 21
0.372071
 31
0.0
  0
LINE
  8
0
 62
     0
 10
2.39916
 20
0.372071
 30
0.0
 11
2.20348
 21
0.395496
 31
0.0
  0
LINE
  8
0
 62
     0
 10
2.20348
 20
0.395496
 30
0.0
 11
2.01194
 21
0.434082
 31
0.0
  0
LINE
  8
0
 62
     0
 10
2.01194
 20
0.434082
 30
0.0
 11
1.82315
 21
0.487825
 31
0.0
  0
LINE
  8
0
 62
     0
 10
1.82315
 20
0.487825
 30
0.0
 11
1.63849
 21
0.55535
 31
0.0
  0
LINE
  8
0
 62
     0
 10
1.63849
 20
0.55535
 30
0.0
 11
1.46072
 21
0.63803
 31
0.0
  0
LINE
  8
0
 62
     0
 10
1.46072
 20
0.63803
 30
0.0
 11
1.28846
 21
0.733118
 31
0.0
  0
LINE
  8
0
 62
     0
 10
1.28846
 20
0.733118
 30
0.0
 11
1.12586
 21
0.841982
 31
0.0
  0
LINE
  8
0
 62
     0
 10
1.12586
 20
0.841982
 30
0.0
 11
0.971518
 21
0.963249
 31
0.0
  0
LINE
  8
0
 62
     0
 10
0.971518
 20
0.963249
 30
0.0
 11
0.826823
 21
1.0983
 31
0.0
  0
LINE
  8
0
 62
     0
 10
0.826823
 20
1.0983
 30
0.0
 11
0.693152
 21
1.24161
 31
0.0
  0
LINE
  8
0
 62
     0
 10
0.693152
 20
1.24161
 30
0.0
 11
0.571885
 21
1.39595
 31
0.0
  0
LINE
  8
0
 62
     0
 10
0.571885
 20
1.39595
 30
0.0
 11
0.463021
 21
1.55856
 31
0.0
  0
LINE
  8
0
 62
     0
 10
0.463021
 20
1.55856
 30
0.0
 11
0.367937
 21
1.73082
 31
0.0
  0
LINE
  8
0
 62
     0
 10
0.367937
 20
1.73082
 30
0.0
 11
0.285254
 21
1.90858
 31
0.0
  0
LINE
  8
0
 62
     0
 10
0.285254
 20
1.90858
 30
0.0
 11
0.21773
 21
2.09324
 31
0.0
  0
LINE
  8
0
 62
     0
 10
0.21773
 20
2.09324
 30
0.0
 11
0.163987
 21
2.28203
 31
0.0
  0
LINE
  8
0
 62
     0
 10
0.163987
 20
2.28203
 30
0.0
 11
0.125402
 21
2.47358
 31
0.0
  0
LINE
  8
0
 62
     0
 10
0.125402
 20
2.47358
 30
0.0
 11
0.101975
 21
2.66926
 31
0.0
  0
LINE
  8
0
 62
     0
 10
0.101975
 20
2.66926
 30
0.0
 11
0.0950846
 21
2.86494
 31
0.0
  0
LINE
  8
0
 62
     0
 10
0.0950846
 20
2.86494
 30
0.0
 11
0.0950846
 21
113.116
 31
0.0
  0
LINE
  8
0
 62
     0
 10
0.0950846
 20
113.116
 30
0.0
 11
0.101975
 21
113.312
 31
0.0
  0
LINE
  8
0
 62
     0
 10
0.101975
 20
113.312
 30
0.0
 11
0.125402
 21
113.508
 31
0.0
  0
LINE
  8
0
 62
     0
 10
0.125402
 20
113.508
 30
0.0
 11
0.163987
 21
113.699
 31
0.0
  0
LINE
  8
0
 62
     0
 10
0.163987
 20
113.699
 30
0.0
 11
0.21773
 21
113.888
 31
0.0
  0
LINE
  8
0
 62
     0
 10
0.21773
 20
113.888
 30
0.0
 11
0.285254
 21
114.072
 31
0.0
  0
LINE
  8
0
 62
     0
 10
0.285254
 20
114.072
 30
0.0
 11
0.367937
 21
114.25
 31
0.0
  0
LINE
  8
0
 62
     0
 10
0.367937
 20
114.25
 30
0.0
 11
0.463021
 21
114.423
 31
0.0
  0
LINE
  8
0
 62
     0
 10
0.463021
 20
114.423
 30
0.0
 11
0.571885
 21
114.585
 31
0.0
  0
LINE
  8
0
 62
     0
 10
0.571885
 20
114.585
 30
0.0
 11
0.693152
 21
114.74
 31
0.0
  0
LINE
  8
0
 62
     0
 10
0.693152
 20
114.74
 30
0.0
 11
0.826823
 21
114.884
 31
0.0
  0
LINE
  8
0
 62
     0
 10
0.826823
 20
114.884
 30
0.0
 11
0.971518
 21
115.018
 31
0.0
  0
LINE
  8
0
 62
     0
 10
0.971518
 20
115.018
 30
0.0
 11
1.12586
 21
115.139
 31
0.0
  0
LINE
  8
0
 62
     0
 10
1.12586
 20
115.139
 30
0.0
 11
1.28846
 21
115.248
 31
0.0
  0
LINE
  8
0
 62
     0
 10
1.28846
 20
115.248
 30
0.0
 11
1.46072
 21
115.343
 31
0.0
  0
LINE
  8
0
 62
     0
 10
1.46072
 20
115.343
 30
0.0
 11
1.63849
 21
115.426
 31
0.0
  0
LINE
  8
0
 62
     0
 10
1.63849
 20
115.426
 30
0.0
 11
1.82315
 21
115.493
 31
0.0
  0
LINE
  8
0
 62
     0
 10
1.82315
 20
115.493
 30
0.0
 11
2.01194
 21
115.547
 31
0.0
  0
LINE
  8
0
 62
     0
 10
2.01194
 20
115.547
 30
0.0
 11
2.20348
 21
115.586
 31
0.0
  0
LINE
  8
0
 62
     0
 10
2.20348
 20
115.586
 30
0.0
 11
2.39916
 21
115.609
 31
0.0
  0
LINE
  8
0
 62
     0
 10
2.39916
 20
115.609
 30
0.0
 11
2.59485
 21
115.616
 31
0.0
  0
LINE
  8
0
 62
     0
 10
2.59485
 20
115.616
 30
0.0
 11
150.946
 21
115.616
 31
0.0
  0
LINE
  8
0
 62
     0
 10
3.63114
 20
5.79191
 30
0.0
 11
3.21359
 21
5.5783
 31
0.0
  0
LINE
  8
0
 62
     0
 10
3.21359
 20
5.5783
 30
0.0
 11
2.88148
 21
5.24619
 31
0.0
  0
LINE
  8
0
 62
     0
 10
2.88148
 20
5.24619
 30
0.0
 11
2.66788
 21
4.82865
 31
0.0
  0
LINE
  8
0
 62
     0
 10
2.66788
 20
4.82865
 30
0.0
 11
2.59485
 21
4.36563
 31
0.0
  0
LINE
  8
0
 62
     0
 10
2.59485
 20
4.36563
 30
0.0
 11
2.66788
 21
3.90123
 31
0.0
  0
LINE
  8
0
 62
     0
 10
2.66788
 20
3.90123
 30
0.0
 11
2.88148
 21
3.48368
 31
0.0
  0
LINE
  8
0
 62
     0
 10
2.88148
 20
3.48368
 30
0.0
 11
3.21359
 21
3.15157
 31
0.0
  0
LINE
  8
0
 62
     0
 10
3.21359
 20
3.15157
 30
0.0
 11
3.63114
 21
2.93798
 31
0.0
  0
LINE
  8
0
 62
     0
 10
3.63114
 20
2.93798
 30
0.0
 11
4.09554
 21
2.86494
 31
0.0
  0
LINE
  8
0
 62
     0
 10
4.09554
 20
2.86494
 30
0.0
 11
4.55856
 21
2.93798
 31
0.0
  0
LINE
  8
0
 62
     0
 10
4.55856
 20
2.93798
 30
0.0
 11
4.97611
 21
3.15157
 31
0.0
  0
LINE
  8
0
 62
     0
 10
4.97611
 20
3.15157
 30
0.0
 11
5.30821
 21
3.48368
 31
0.0
  0
LINE
  8
0
 62
     0
 10
5.30821
 20
3.48368
 30
0.0
 11
5.52178
 21
3.90123
 31
0.0
  0
LINE
  8
0
 62
     0
 10
5.52178
 20
3.90123
 30
0.0
 11
5.59484
 21
4.36563
 31
0.0
  0
LINE
  8
0
 62
     0
 10
5.59484
 20
4.36563
 30
0.0
 11
5.52178
 21
4.82865
 31
0.0
  0
LINE
  8
0
 62
     0
 10
5.52178
 20
4.82865
 30
0.0
 11
5.30821
 21
5.24619
 31
0.0
  0
LINE
  8
0
 62
     0
 10
5.30821
 20
5.24619
 30
0.0
 11
4.97611
 21
5.5783
 31
0.0
  0
LINE
  8
0
 62
     0
 10
4.97611
 20
5.5783
 30
0.0
 11
4.55856
 21
5.79191
 31
0.0
  0
LINE
  8
0
 62
     0
 10
4.55856
 20
5.79191
 30
0.0
 11
4.09554
 21
5.86631
 31
0.0
  0
LINE
  8
0
 62
     0
 10
4.09554
 20
5.86631
 30
0.0
 11
3.63114
 21
5.79191
 31
0.0
  0
LINE
  8
0
 62
     0
 10
76.3062
 20
5.79191
 30
0.0
 11
75.8885
 21
5.5783
 31
0.0
  0
LINE
  8
0
 62
     0
 10
75.8885
 20
5.5783
 30
0.0
 11
75.5565
 21
5.24619
 31
0.0
  0
LINE
  8
0
 62
     0
 10
75.5565
 20
5.24619
 30
0.0
 11
75.3428
 21
4.82865
 31
0.0
  0
LINE
  8
0
 62
     0
 10
75.3428
 20
4.82865
 30
0.0
 11
75.2697
 21
4.36563
 31
0.0
  0
LINE
  8
0
 62
     0
 10
75.2697
 20
4.36563
 30
0.0
 11
75.3428
 21
3.90123
 31
0.0
  0
LINE
  8
0
 62
     0
 10
75.3428
 20
3.90123
 30
0.0
 11
75.5565
 21
3.48368
 31
0.0
  0
LINE
  8
0
 62
     0
 10
75.5565
 20
3.48368
 30
0.0
 11
75.8885
 21
3.15157
 31
0.0
  0
LINE
  8
0
 62
     0
 10
75.8885
 20
3.15157
 30
0.0
 11
76.3062
 21
2.93798
 31
0.0
  0
LINE
  8
0
 62
     0
 10
76.3062
 20
2.93798
 30
0.0
 11
76.7704
 21
2.86494
 31
0.0
  0
LINE
  8
0
 62
     0
 10
76.7704
 20
2.86494
 30
0.0
 11
77.2351
 21
2.93798
 31
0.0
  0
LINE
  8
0
 62
     0
 10
77.2351
 20
2.93798
 30
0.0
 11
77.6524
 21
3.15157
 31
0.0
  0
LINE
  8
0
 62
     0
 10
77.6524
 20
3.15157
 30
0.0
 11
77.9847
 21
3.48368
 31
0.0
  0
LINE
  8
0
 62
     0
 10
77.9847
 20
3.48368
 30
0.0
 11
78.1981
 21
3.90123
 31
0.0
  0
LINE
  8
0
 62
     0
 10
78.1981
 20
3.90123
 30
0.0
 11
78.2697
 21
4.36563
 31
0.0
  0
LINE
  8
0
 62
     0
 10
78.2697
 20
4.36563
 30
0.0
 11
78.1981
 21
4.82865
 31
0.0
  0
LINE
  8
0
 62
     0
 10
78.1981
 20
4.82865
 30
0.0
 11
77.9847
 21
5.24619
 31
0.0
  0
LINE
  8
0
 62
     0
 10
77.9847
 20
5.24619
 30
0.0
 11
77.6524
 21
5.5783
 31
0.0
  0
LINE
  8
0
 62
     0
 10
77.6524
 20
5.5783
 30
0.0
 11
77.2351
 21
5.79191
 31
0.0
  0
LINE
  8
0
 62
     0
 10
77.2351
 20
5.79191
 30
0.0
 11
76.7704
 21
5.86631
 31
0.0
  0
LINE
  8
0
 62
     0
 10
76.7704
 20
5.86631
 30
0.0
 11
76.3062
 21
5.79191
 31
0.0
  0
LINE
  8
0
 62
     0
 10
148.983
 20
5.79191
 30
0.0
 11
148.565
 21
5.5783
 31
0.0
  0
LINE
  8
0
 62
     0
 10
148.565
 20
5.5783
 30
0.0
 11
148.233
 21
5.24619
 31
0.0
  0
LINE
  8
0
 62
     0
 10
148.233
 20
5.24619
 30
0.0
 11
148.019
 21
4.82865
 31
0.0
  0
LINE
  8
0
 62
     0
 10
148.019
 20
4.82865
 30
0.0
 11
147.946
 21
4.36563
 31
0.0
  0
LINE
  8
0
 62
     0
 10
147.946
 20
4.36563
 30
0.0
 11
148.019
 21
3.90123
 31
0.0
  0
LINE
  8
0
 62
     0
 10
148.019
 20
3.90123
 30
0.0
 11
148.233
 21
3.48368
 31
0.0
  0
LINE
  8
0
 62
     0
 10
148.233
 20
3.48368
 30
0.0
 11
148.565
 21
3.15157
 31
0.0
  0
LINE
  8
0
 62
     0
 10
148.565
 20
3.15157
 30
0.0
 11
148.983
 21
2.93798
 31
0.0
  0
LINE
  8
0
 62
     0
 10
148.983
 20
2.93798
 30
0.0
 11
149.447
 21
2.86494
 31
0.0
  0
LINE
  8
0
 62
     0
 10
149.447
 20
2.86494
 30
0.0
 11
149.91
 21
2.93798
 31
0.0
  0
LINE
  8
0
 62
     0
 10
149.91
 20
2.93798
 30
0.0
 11
150.327
 21
3.15157
 31
0.0
  0
LINE
  8
0
 62
     0
 10
150.327
 20
3.15157
 30
0.0
 11
150.659
 21
3.48368
 31
0.0
  0
LINE
  8
0
 62
     0
 10
150.659
 20
3.48368
 30
0.0
 11
150.873
 21
3.90123
 31
0.0
  0
LINE
  8
0
 62
     0
 10
150.873
 20
3.90123
 30
0.0
 11
150.946
 21
4.36563
 31
0.0
  0
LINE
  8
0
 62
     0
 10
150.946
 20
4.36563
 30
0.0
 11
150.873
 21
4.82865
 31
0.0
  0
LINE
  8
0
 62
     0
 10
150.873
 20
4.82865
 30
0.0
 11
150.659
 21
5.24619
 31
0.0
  0
LINE
  8
0
 62
     0
 10
150.659
 20
5.24619
 30
0.0
 11
150.327
 21
5.5783
 31
0.0
  0
LINE
  8
0
 62
     0
 10
150.327
 20
5.5783
 30
0.0
 11
149.91
 21
5.79191
 31
0.0
  0
LINE
  8
0
 62
     0
 10
149.91
 20
5.79191
 30
0.0
 11
149.447
 21
5.86631
 31
0.0
  0
LINE
  8
0
 62
     0
 10
149.447
 20
5.86631
 30
0.0
 11
148.983
 21
5.79191
 31
0.0
  0
LINE
  8
0
 62
     0
 10
3.63114
 20
59.4184
 30
0.0
 11
3.21359
 21
59.2046
 31
0.0
  0
LINE
  8
0
 62
     0
 10
3.21359
 20
59.2046
 30
0.0
 11
2.88148
 21
58.8726
 31
0.0
  0
LINE
  8
0
 62
     0
 10
2.88148
 20
58.8726
 30
0.0
 11
2.66788
 21
58.4549
 31
0.0
  0
LINE
  8
0
 62
     0
 10
2.66788
 20
58.4549
 30
0.0
 11
2.59485
 21
57.9907
 31
0.0
  0
LINE
  8
0
 62
     0
 10
2.59485
 20
57.9907
 30
0.0
 11
2.66788
 21
57.5261
 31
0.0
  0
LINE
  8
0
 62
     0
 10
2.66788
 20
57.5261
 30
0.0
 11
2.88148
 21
57.1087
 31
0.0
  0
LINE
  8
0
 62
     0
 10
2.88148
 20
57.1087
 30
0.0
 11
3.21359
 21
56.7764
 31
0.0
  0
LINE
  8
0
 62
     0
 10
3.21359
 20
56.7764
 30
0.0
 11
3.63114
 21
56.563
 31
0.0
  0
LINE
  8
0
 62
     0
 10
3.63114
 20
56.563
 30
0.0
 11
4.09554
 21
56.4914
 31
0.0
  0
LINE
  8
0
 62
     0
 10
4.09554
 20
56.4914
 30
0.0
 11
4.55856
 21
56.563
 31
0.0
  0
LINE
  8
0
 62
     0
 10
4.55856
 20
56.563
 30
0.0
 11
4.97611
 21
56.7764
 31
0.0
  0
LINE
  8
0
 62
     0
 10
4.97611
 20
56.7764
 30
0.0
 11
5.30821
 21
57.1087
 31
0.0
  0
LINE
  8
0
 62
     0
 10
5.30821
 20
57.1087
 30
0.0
 11
5.52178
 21
57.5261
 31
0.0
  0
LINE
  8
0
 62
     0
 10
5.52178
 20
57.5261
 30
0.0
 11
5.59484
 21
57.9907
 31
0.0
  0
LINE
  8
0
 62
     0
 10
5.59484
 20
57.9907
 30
0.0
 11
5.52178
 21
58.4549
 31
0.0
  0
LINE
  8
0
 62
     0
 10
5.52178
 20
58.4549
 30
0.0
 11
5.30821
 21
58.8726
 31
0.0
  0
LINE
  8
0
 62
     0
 10
5.30821
 20
58.8726
 30
0.0
 11
4.97611
 21
59.2046
 31
0.0
  0
LINE
  8
0
 62
     0
 10
4.97611
 20
59.2046
 30
0.0
 11
4.55856
 21
59.4184
 31
0.0
  0
LINE
  8
0
 62
     0
 10
4.55856
 20
59.4184
 30
0.0
 11
4.09554
 21
59.4914
 31
0.0
  0
LINE
  8
0
 62
     0
 10
4.09554
 20
59.4914
 30
0.0
 11
3.63114
 21
59.4184
 31
0.0
  0
LINE
  8
0
 62
     0
 10
148.983
 20
59.4184
 30
0.0
 11
148.565
 21
59.2046
 31
0.0
  0
LINE
  8
0
 62
     0
 10
148.565
 20
59.2046
 30
0.0
 11
148.233
 21
58.8726
 31
0.0
  0
LINE
  8
0
 62
     0
 10
148.233
 20
58.8726
 30
0.0
 11
148.019
 21
58.4549
 31
0.0
  0
LINE
  8
0
 62
     0
 10
148.019
 20
58.4549
 30
0.0
 11
147.946
 21
57.9907
 31
0.0
  0
LINE
  8
0
 62
     0
 10
147.946
 20
57.9907
 30
0.0
 11
148.019
 21
57.5261
 31
0.0
  0
LINE
  8
0
 62
     0
 10
148.019
 20
57.5261
 30
0.0
 11
148.233
 21
57.1087
 31
0.0
  0
LINE
  8
0
 62
     0
 10
148.233
 20
57.1087
 30
0.0
 11
148.565
 21
56.7764
 31
0.0
  0
LINE
  8
0
 62
     0
 10
148.565
 20
56.7764
 30
0.0
 11
148.983
 21
56.563
 31
0.0
  0
LINE
  8
0
 62
     0
 10
148.983
 20
56.563
 30
0.0
 11
149.447
 21
56.4914
 31
0.0
  0
LINE
  8
0
 62
     0
 10
149.447
 20
56.4914
 30
0.0
 11
149.91
 21
56.563
 31
0.0
  0
LINE
  8
0
 62
     0
 10
149.91
 20
56.563
 30
0.0
 11
150.327
 21
56.7764
 31
0.0
  0
LINE
  8
0
 62
     0
 10
150.327
 20
56.7764
 30
0.0
 11
150.659
 21
57.1087
 31
0.0
  0
LINE
  8
0
 62
     0
 10
150.659
 20
57.1087
 30
0.0
 11
150.873
 21
57.5261
 31
0.0
  0
LINE
  8
0
 62
     0
 10
150.873
 20
57.5261
 30
0.0
 11
150.946
 21
57.9907
 31
0.0
  0
LINE
  8
0
 62
     0
 10
150.946
 20
57.9907
 30
0.0
 11
150.873
 21
58.4549
 31
0.0
  0
LINE
  8
0
 62
     0
 10
150.873
 20
58.4549
 30
0.0
 11
150.659
 21
58.8726
 31
0.0
  0
LINE
  8
0
 62
     0
 10
150.659
 20
58.8726
 30
0.0
 11
150.327
 21
59.2046
 31
0.0
  0
LINE
  8
0
 62
     0
 10
150.327
 20
59.2046
 30
0.0
 11
149.91
 21
59.4184
 31
0.0
  0
LINE
  8
0
 62
     0
 10
149.91
 20
59.4184
 30
0.0
 11
149.447
 21
59.4914
 31
0.0
  0
LINE
  8
0
 62
     0
 10
149.447
 20
59.4914
 30
0.0
 11
148.983
 21
59.4184
 31
0.0
  0
LINE
  8
0
 62
     0
 10
3.63114
 20
113.043
 30
0.0
 11
3.21359
 21
112.83
 31
0.0
  0
LINE
  8
0
 62
     0
 10
3.21359
 20
112.83
 30
0.0
 11
2.88148
 21
112.498
 31
0.0
  0
LINE
  8
0
 62
     0
 10
2.88148
 20
112.498
 30
0.0
 11
2.66788
 21
112.08
 31
0.0
  0
LINE
  8
0
 62
     0
 10
2.66788
 20
112.08
 30
0.0
 11
2.59485
 21
111.616
 31
0.0
  0
LINE
  8
0
 62
     0
 10
2.59485
 20
111.616
 30
0.0
 11
2.66788
 21
111.153
 31
0.0
  0
LINE
  8
0
 62
     0
 10
2.66788
 20
111.153
 30
0.0
 11
2.88148
 21
110.735
 31
0.0
  0
LINE
  8
0
 62
     0
 10
2.88148
 20
110.735
 30
0.0
 11
3.21359
 21
110.403
 31
0.0
  0
LINE
  8
0
 62
     0
 10
3.21359
 20
110.403
 30
0.0
 11
3.63114
 21
110.189
 31
0.0
  0
LINE
  8
0
 62
     0
 10
3.63114
 20
110.189
 30
0.0
 11
4.09554
 21
110.116
 31
0.0
  0
LINE
  8
0
 62
     0
 10
4.09554
 20
110.116
 30
0.0
 11
4.55856
 21
110.189
 31
0.0
  0
LINE
  8
0
 62
     0
 10
4.55856
 20
110.189
 30
0.0
 11
4.97611
 21
110.403
 31
0.0
  0
LINE
  8
0
 62
     0
 10
4.97611
 20
110.403
 30
0.0
 11
5.30821
 21
110.735
 31
0.0
  0
LINE
  8
0
 62
     0
 10
5.30821
 20
110.735
 30
0.0
 11
5.52178
 21
111.153
 31
0.0
  0
LINE
  8
0
 62
     0
 10
5.52178
 20
111.153
 30
0.0
 11
5.59484
 21
111.616
 31
0.0
  0
LINE
  8
0
 62
     0
 10
5.59484
 20
111.616
 30
0.0
 11
5.52178
 21
112.08
 31
0.0
  0
LINE
  8
0
 62
     0
 10
5.52178
 20
112.08
 30
0.0
 11
5.30821
 21
112.498
 31
0.0
  0
LINE
  8
0
 62
     0
 10
5.30821
 20
112.498
 30
0.0
 11
4.97611
 21
112.83
 31
0.0
  0
LINE
  8
0
 62
     0
 10
4.97611
 20
112.83
 30
0.0
 11
4.55856
 21
113.043
 31
0.0
  0
LINE
  8
0
 62
     0
 10
4.55856
 20
113.043
 30
0.0
 11
4.09554
 21
113.116
 31
0.0
  0
LINE
  8
0
 62
     0
 10
4.09554
 20
113.116
 30
0.0
 11
3.63114
 21
113.043
 31
0.0
  0
LINE
  8
0
 62
     0
 10
148.983
 20
113.043
 30
0.0
 11
148.565
 21
112.83
 31
0.0
  0
LINE
  8
0
 62
     0
 10
148.565
 20
112.83
 30
0.0
 11
148.233
 21
112.498
 31
0.0
  0
LINE
  8
0
 62
     0
 10
148.233
 20
112.498
 30
0.0
 11
148.019
 21
112.08
 31
0.0
  0
LINE
  8
0
 62
     0
 10
148.019
 20
112.08
 30
0.0
 11
147.946
 21
111.616
 31
0.0
  0
LINE
  8
0
 62
     0
 10
147.946
 20
111.616
 30
0.0
 11
148.019
 21
111.153
 31
0.0
  0
LINE
  8
0
 62
     0
 10
148.019
 20
111.153
 30
0.0
 11
148.233
 21
110.735
 31
0.0
  0
LINE
  8
0
 62
     0
 10
148.233
 20
110.735
 30
0.0
 11
148.565
 21
110.403
 31
0.0
  0
LINE
  8
0
 62
     0
 10
148.565
 20
110.403
 30
0.0
 11
148.983
 21
110.189
 31
0.0
  0
LINE
  8
0
 62
     0
 10
148.983
 20
110.189
 30
0.0
 11
149.447
 21
110.116
 31
0.0
  0
LINE
  8
0
 62
     0
 10
149.447
 20
110.116
 30
0.0
 11
149.91
 21
110.189
 31
0.0
  0
LINE
  8
0
 62
     0
 10
149.91
 20
110.189
 30
0.0
 11
150.327
 21
110.403
 31
0.0
  0
LINE
  8
0
 62
     0
 10
150.327
 20
110.403
 30
0.0
 11
150.659
 21
110.735
 31
0.0
  0
LINE
  8
0
 62
     0
 10
150.659
 20
110.735
 30
0.0
 11
150.873
 21
111.153
 31
0.0
  0
LINE
  8
0
 62
     0
 10
150.873
 20
111.153
 30
0.0
 11
150.946
 21
111.616
 31
0.0
  0
LINE
  8
0
 62
     0
 10
150.946
 20
111.616
 30
0.0
 11
150.873
 21
112.08
 31
0.0
  0
LINE
  8
0
 62
     0
 10
150.873
 20
112.08
 30
0.0
 11
150.659
 21
112.498
 31
0.0
  0
LINE
  8
0
 62
     0
 10
150.659
 20
112.498
 30
0.0
 11
150.327
 21
112.83
 31
0.0
  0
LINE
  8
0
 62
     0
 10
150.327
 20
112.83
 30
0.0
 11
149.91
 21
113.043
 31
0.0
  0
LINE
  8
0
 62
     0
 10
149.91
 20
113.043
 30
0.0
 11
149.447
 21
113.116
 31
0.0
  0
LINE
  8
0
 62
     0
 10
149.447
 20
113.116
 30
0.0
 11
148.983
 21
113.043
 31
0.0
  0
LINE
  8
0
 62
     0
 10
76.3062
 20
113.043
 30
0.0
 11
75.8885
 21
112.83
 31
0.0
  0
LINE
  8
0
 62
     0
 10
75.8885
 20
112.83
 30
0.0
 11
75.5565
 21
112.498
 31
0.0
  0
LINE
  8
0
 62
     0
 10
75.5565
 20
112.498
 30
0.0
 11
75.3428
 21
112.08
 31
0.0
  0
LINE
  8
0
 62
     0
 10
75.3428
 20
112.08
 30
0.0
 11
75.2697
 21
111.616
 31
0.0
  0
LINE
  8
0
 62
     0
 10
75.2697
 20
111.616
 30
0.0
 11
75.3428
 21
111.153
 31
0.0
  0
LINE
  8
0
 62
     0
 10
75.3428
 20
111.153
 30
0.0
 11
75.5565
 21
110.735
 31
0.0
  0
LINE
  8
0
 62
     0
 10
75.5565
 20
110.735
 30
0.0
 11
75.8885
 21
110.403
 31
0.0
  0
LINE
  8
0
 62
     0
 10
75.8885
 20
110.403
 30
0.0
 11
76.3062
 21
110.189
 31
0.0
  0
LINE
  8
0
 62
     0
 10
76.3062
 20
110.189
 30
0.0
 11
76.7704
 21
110.116
 31
0.0
  0
LINE
  8
0
 62
     0
 10
76.7704
 20
110.116
 30
0.0
 11
77.2351
 21
110.189
 31
0.0
  0
LINE
  8
0
 62
     0
 10
77.2351
 20
110.189
 30
0.0
 11
77.6524
 21
110.403
 31
0.0
  0
LINE
  8
0
 62
     0
 10
77.6524
 20
110.403
 30
0.0
 11
77.9847
 21
110.735
 31
0.0
  0
LINE
  8
0
 62
     0
 10
77.9847
 20
110.735
 30
0.0
 11
78.1981
 21
111.153
 31
0.0
  0
LINE
  8
0
 62
     0
 10
78.1981
 20
111.153
 30
0.0
 11
78.2697
 21
111.616
 31
0.0
  0
LINE
  8
0
 62
     0
 10
78.2697
 20
111.616
 30
0.0
 11
78.1981
 21
112.08
 31
0.0
  0
LINE
  8
0
 62
     0
 10
78.1981
 20
112.08
 30
0.0
 11
77.9847
 21
112.498
 31
0.0
  0
LINE
  8
0
 62
     0
 10
77.9847
 20
112.498
 30
0.0
 11
77.6524
 21
112.83
 31
0.0
  0
LINE
  8
0
 62
     0
 10
77.6524
 20
112.83
 30
0.0
 11
77.2351
 21
113.043
 31
0.0
  0
LINE
  8
0
 62
     0
 10
77.2351
 20
113.043
 30
0.0
 11
76.7704
 21
113.116
 31
0.0
  0
LINE
  8
0
 62
     0
 10
76.7704
 20
113.116
 30
0.0
 11
76.3062
 21
113.043
 31
0.0
  0
ENDSEC
  0
EOF
