<?xml version="1.0" encoding="UTF-8"?>
<!-- Generated by SVGo -->
<svg width="163.352mm" height="125.252mm" viewBox="0.000 0.000 163.352 125.252" xmlns="http://www.w3.org/2000/svg" xmlns:xlink="http://www.w3.org/1999/xlink">
<polygon points="155.852,5.001 156.048,5.008 156.243,5.031 156.435,5.070 156.624,5.123 156.808,5.191 156.986,5.273 157.158,5.369 157.321,5.478 157.475,5.599 157.619,5.733 157.753,5.877 157.874,6.031 157.983,6.194 158.079,6.366 158.161,6.544 158.229,6.728 158.282,6.917 158.321,7.109 158.344,7.304 158.351,7.501 158.352,117.751 158.344,117.948 158.321,118.143 158.282,118.335 158.229,118.524 158.161,118.708 158.079,118.886 157.983,119.058 157.874,119.221 157.753,119.375 157.619,119.519 157.475,119.653 157.321,119.774 157.158,119.883 156.986,119.979 156.808,120.061 156.624,120.129 156.435,120.182 156.243,120.221 156.048,120.244 155.852,120.252 7.501,120.251 7.304,120.244 7.109,120.221 6.917,120.182 6.728,120.129 6.544,120.061 6.366,119.979 6.194,119.883 6.031,119.774 5.877,119.653 5.733,119.519 5.599,119.375 5.478,119.221 5.369,119.058 5.273,118.886 5.191,118.708 5.123,118.524 5.070,118.335 5.031,118.143 5.008,117.948 5.000,117.751 5.001,7.501 5.008,7.304 5.031,7.109 5.070,6.917 5.123,6.728 5.191,6.544 5.273,6.366 5.369,6.194 5.478,6.031 5.599,5.877 5.733,5.733 5.877,5.599 6.031,5.478 6.194,5.369 6.366,5.273 6.544,5.191 6.728,5.123 6.917,5.070 7.109,5.031 7.304,5.008 7.501,5.000" style="fill:none;stroke-width:0.050000mm;stroke:black"/>
<polygon points="8.537,114.825 8.119,115.038 7.787,115.370 7.574,115.788 7.500,116.251 7.574,116.715 7.787,117.133 8.119,117.465 8.537,117.678 9.001,117.751 9.464,117.678 9.882,117.465 10.214,117.133 10.427,116.715 10.501,116.251 10.427,115.788 10.214,115.370 9.882,115.038 9.464,114.825 9.001,114.751" style="fill:none;stroke-width:0.050000mm;stroke:black"/>
<polygon points="81.212,114.825 80.794,115.038 80.462,115.370 80.249,115.788 80.176,116.251 80.249,116.715 80.462,117.133 80.794,117.465 81.212,117.678 81.676,117.751 82.140,117.678 82.558,117.465 82.890,117.133 83.103,116.715 83.176,116.251 83.103,115.788 82.890,115.370 82.558,115.038 82.140,114.825 81.676,114.751" style="fill:none;stroke-width:0.050000mm;stroke:black"/>
<polygon points="153.888,114.825 153.470,115.038 153.138,115.370 152.925,115.788 152.851,116.251 152.925,116.715 153.138,117.133 153.470,117.465 153.888,117.678 154.352,117.751 154.815,117.678 155.233,117.465 155.565,117.133 155.778,116.715 155.852,116.251 155.778,115.788 155.565,115.370 155.233,115.038 154.815,114.825 154.352,114.751" style="fill:none;stroke-width:0.050000mm;stroke:black"/>
<polygon points="8.537,61.199 8.119,61.412 7.787,61.744 7.574,62.162 7.500,62.626 7.574,63.090 7.787,63.508 8.119,63.840 8.537,64.053 9.001,64.126 9.464,64.053 9.882,63.840 10.214,63.508 10.427,63.090 10.501,62.626 10.427,62.162 10.214,61.744 9.882,61.412 9.464,61.199 9.001,61.126" style="fill:none;stroke-width:0.050000mm;stroke:black"/>
<polygon points="153.888,61.199 153.470,61.412 153.138,61.744 152.925,62.162 152.851,62.626 152.925,63.090 153.138,63.508 153.470,63.840 153.888,64.053 154.352,64.126 154.815,64.053 155.233,63.840 155.565,63.508 155.778,63.090 155.852,62.626 155.778,62.162 155.565,61.744 155.233,61.412 154.815,61.199 154.352,61.126" style="fill:none;stroke-width:0.050000mm;stroke:black"/>
<polygon points="8.537,7.574 8.119,7.787 7.787,8.119 7.574,8.537 7.500,9.001 7.574,9.464 7.787,9.882 8.119,10.214 8.537,10.427 9.001,10.501 9.464,10.427 9.882,10.214 10.214,9.882 10.427,9.464 10.501,9.001 10.427,8.537 10.214,8.119 9.882,7.787 9.464,7.574 9.001,7.501" style="fill:none;stroke-width:0.050000mm;stroke:black"/>
<polygon points="153.888,7.574 153.470,7.787 153.138,8.119 152.925,8.537 152.851,9.001 152.925,9.464 153.138,9.882 153.470,10.214 153.888,10.427 154.352,10.501 154.815,10.427 155.233,10.214 155.565,9.882 155.778,9.464 155.852,9.001 155.778,8.537 155.565,8.119 155.233,7.787 154.815,7.574 154.352,7.501" style="fill:none;stroke-width:0.050000mm;stroke:black"/>
<polygon points="81.212,7.574 80.794,7.787 80.462,8.119 80.249,8.537 80.176,9.001 80.249,9.464 80.462,9.882 80.794,10.214 81.212,10.427 81.676,10.501 82.140,10.427 82.558,10.214 82.890,9.882 83.103,9.464 83.176,9.001 83.103,8.537 82.890,8.119 82.558,7.787 82.140,7.574 81.676,7.501" style="fill:none;stroke-width:0.050000mm;stroke:black"/>
</svg>